<?xml version="1.0" encoding="utf-8"?>
<!-- Generator: Adobe Illustrator 24.1.2, SVG Export Plug-In . SVG Version: 6.00 Build 0)  -->
<svg version="1.1" id="Layer_1" xmlns="http://www.w3.org/2000/svg" xmlns:xlink="http://www.w3.org/1999/xlink" x="0px" y="0px"
	 viewBox="0 0 18 21.1" style="enable-background:new 0 0 18 21.1;" xml:space="preserve">
<style type="text/css">
	.st0{fill:#FFFFFE;}
</style>
<path class="st0" d="M13,5.1c-1.7-0.1-3.2,1-4,1c-0.8,0-2.1-0.9-3.5-0.9c-1.8,0-3.4,1-4.4,2.6c-1.9,3.2-0.5,8,1.3,10.6
	c0.9,1.3,1.9,2.7,3.3,2.7c1.3,0,1.8-0.9,3.5-0.9c1.6,0,2.1,0.9,3.5,0.8c1.4,0,2.4-1.3,3.2-2.6c1-1.5,1.4-2.9,1.5-3
	c0,0-2.8-1.1-2.8-4.3c0-2.7,2.2-4,2.3-4C15.6,5.4,13.7,5.1,13,5.1 M12,3.4c0.7-0.9,1.2-2.1,1.1-3.4C12,0,10.7,0.7,10,1.6
	C9.3,2.4,8.7,3.7,8.8,4.9C10,5,11.2,4.3,12,3.4"/>
</svg>
