<?xml version="1.0" encoding="utf-8"?>
<!-- Generator: Adobe Illustrator 24.1.2, SVG Export Plug-In . SVG Version: 6.00 Build 0)  -->
<svg version="1.1" id="Layer_1" xmlns="http://www.w3.org/2000/svg" xmlns:xlink="http://www.w3.org/1999/xlink" x="0px" y="0px"
	 viewBox="0 0 17 19.8" style="enable-background:new 0 0 17 19.8;" xml:space="preserve">
<style type="text/css">
	.st0{fill:#FFFFFF;}
</style>
<path id="bag" class="st0" d="M14.5,3.8h-1.8C12.5,1.5,10.5-0.2,8.1,0C6.1,0.1,4.5,1.8,4.3,3.8H2.5C1.1,3.8,0,4.9,0,6.3v11
	c0,1.4,1.1,2.5,2.5,2.5h12c1.4,0,2.5-1.1,2.5-2.5v-11C17,4.9,15.9,3.8,14.5,3.8z M8.5,0.9c1.6,0,3,1.2,3.2,2.9H5.3
	C5.5,2.2,6.9,0.9,8.5,0.9z M16,17.3c0,0.8-0.7,1.5-1.5,1.5h-12c-0.8,0-1.5-0.7-1.5-1.5v-11c0-0.8,0.7-1.5,1.5-1.5h12
	c0.8,0,1.5,0.7,1.5,1.5V17.3z"/>
</svg>
